<?xml version="1.0" encoding="utf-8"?>
<svg xmlns="http://www.w3.org/2000/svg" height="512pt" version="1.1" viewBox="0 0 512 512" width="512pt">
<path d="M 0.00 0.00 L 512.00 0.00 L 512.00 512.00 L 0.00 512.00 L 0.00 0.00 Z" fill="transparent" opacity="1.00" stroke="transparent" stroke-width="0.25"/>
<path d="M 204.21 25.26 C 229.14 25.18 254.06 24.52 279.00 24.91 C 289.01 25.35 299.04 25.18 309.06 25.28 C 309.53 30.85 309.22 36.43 309.29 42.00 C 309.24 90.39 309.43 138.78 309.28 187.16 C 314.80 186.16 320.08 184.19 325.45 182.59 C 362.17 171.64 398.76 160.29 435.48 149.35 C 445.23 146.54 454.82 142.96 464.80 141.09 C 471.11 158.24 476.66 175.66 482.17 193.07 C 486.96 206.67 491.15 220.47 495.37 234.26 C 492.03 236.27 488.27 237.37 484.62 238.63 C 459.38 246.78 434.57 256.17 409.38 264.47 C 386.66 272.36 363.84 279.95 341.02 287.52 C 341.93 290.18 343.73 292.37 345.34 294.64 C 369.27 329.00 393.77 362.95 417.68 397.32 C 424.01 406.49 430.73 415.41 436.82 424.74 C 410.25 444.23 383.47 463.45 356.74 482.70 C 355.67 483.02 354.87 482.69 354.32 481.70 C 336.74 459.22 319.52 436.46 302.37 413.65 C 287.92 394.14 273.59 374.53 258.86 355.24 C 257.29 353.17 256.07 350.75 254.01 349.12 C 252.49 350.27 251.44 351.90 250.29 353.39 C 232.94 376.38 216.02 399.69 198.65 422.66 C 184.59 441.29 170.28 459.74 156.29 478.41 C 154.73 479.60 153.03 478.01 151.75 477.18 C 137.87 466.71 123.91 456.34 110.05 445.84 C 99.47 437.39 88.14 429.92 77.84 421.13 C 76.14 419.85 77.99 417.97 78.74 416.75 C 106.88 377.04 135.82 337.89 164.92 298.89 C 167.65 295.13 170.74 291.60 172.90 287.46 C 120.55 270.06 69.25 249.65 17.18 231.46 C 17.30 230.13 17.39 228.80 17.68 227.50 C 27.13 197.33 36.88 167.24 46.67 137.18 C 50.47 137.84 54.04 139.33 57.70 140.50 C 105.31 155.77 152.92 171.02 200.44 186.52 C 201.57 186.83 202.70 187.11 203.84 187.36 C 203.90 136.57 203.87 85.79 203.89 35.00 C 203.94 31.75 204.20 28.51 204.21 25.26 Z" fill="#e91f56" opacity="1.00" stroke="#e91f56" stroke-width="0.25"/>
</svg>